<svg width="484" height="346" viewBox="0 0 484 346" fill="none" xmlns="http://www.w3.org/2000/svg">
<g clip-path="url(#clip0_4006_3)">
<path fill-rule="evenodd" clip-rule="evenodd" d="M420.196 0.499208C406.392 1.30337 358.981 3.79546 347.42 7.41116C271.707 31.1047 244.311 115.177 265.233 259.629C270.862 281.874 283.286 301.811 300.777 316.664C318.267 331.518 339.953 340.549 362.816 342.501C385.679 344.452 408.581 339.228 428.336 327.554C448.091 315.88 463.715 298.338 473.033 277.369C482.352 256.4 484.901 233.048 480.326 210.562C475.751 188.077 464.28 167.577 447.509 151.916C430.738 136.255 409.502 126.212 386.757 123.185C364.011 120.158 340.887 124.297 320.605 135.027C319.531 122.467 322.16 109.867 328.168 98.7838C334.176 87.701 343.299 78.621 354.41 72.6656C364.018 67.526 409.605 64.549 420.727 64.737L420.196 0.499208Z" fill="#8A6B52"/>
<path fill-rule="evenodd" clip-rule="evenodd" d="M163.234 2.62397C149.421 3.42821 102.01 5.9203 90.4491 9.53601C14.7291 33.2296 -12.6767 117.302 8.23171 261.754C13.8588 283.996 26.2798 303.931 43.7659 318.784C61.2521 333.637 82.9336 342.669 105.793 344.623C128.652 346.577 151.552 341.357 171.306 329.688C191.06 318.019 206.685 300.483 216.006 279.519C225.327 258.555 227.881 235.207 223.312 212.723C218.743 190.24 207.279 169.74 190.515 154.077C173.751 138.414 152.521 128.366 129.78 125.333C107.038 122.299 83.9169 126.431 63.6334 137.152C62.5597 124.591 65.1892 111.991 71.197 100.909C77.2049 89.8259 86.3279 80.7459 97.4389 74.7904C107.047 69.6508 152.634 66.6738 163.766 66.8618L163.234 2.62397Z" fill="#8A6B52"/>
</g>
<defs>
<clipPath id="clip0_4006_3">
<rect width="480.59" height="342" fill="white" transform="translate(483.401 341.988) rotate(179.526)"/>
</clipPath>
</defs>
</svg>
